<svg width="187" height="84" viewBox="0 0 187 84" fill="none" xmlns="http://www.w3.org/2000/svg">
<g filter="url(#filter0_d_45_1965)">
<path fill-rule="evenodd" clip-rule="evenodd" d="M30.027 12.1011C32.0181 12.6232 33.1622 14.4378 32.7168 16.644C32.6324 17.056 32.4481 18.0286 32.4097 18.1616C31.5805 21.6449 31.4193 22.1414 30.3623 26.802C30.2368 27.4444 30.0167 28.4502 29.9425 28.765C29.7352 29.6352 28.8292 33.0519 28.6424 33.9707C32.077 31.158 35.6089 30.4618 40.3564 31.3474C43.6989 31.9693 46.2992 34.2778 47.6249 37.4898C48.9276 40.6403 48.705 43.8676 47.7273 47.5147C45.836 54.5657 40.057 58.7246 35.4963 59.6511C30.0679 60.6262 23.8539 58.5685 21.2101 52.9533C20.4448 51.3307 21.0386 49.3446 22.6433 48.5435C24.4425 47.6452 26.3774 48.4002 27.7108 50.353C28.6757 51.7683 30.4544 54.1075 33.9607 53.478C36.6198 52.9994 39.5195 50.4272 40.684 46.0917C41.2599 43.947 41.0347 41.6948 40.4998 40.3972C40.0365 39.2762 39.0256 38.2397 37.5181 37.6638C35.9416 37.0598 34.0861 36.8576 32.1461 37.6945C30.2752 38.5007 28.43 39.637 26.8329 43.2892C26.0395 45.1012 24.3811 45.8179 22.7201 45.5517C20.8825 45.2574 19.6387 43.2943 20.2375 40.9653C21.3278 36.7194 23.4777 30.0165 24.0893 27.1091C22.3669 29.5046 18.5074 31.7082 16.3883 32.4044C14.694 33.0186 12.3369 32.7857 11.6894 30.8176C11.0419 28.8494 12.1219 27.2601 13.9083 26.4795C17.0461 25.1102 19.6745 23.3085 21.7117 20.9181C23.6747 18.6172 23.8692 18.0669 24.4809 17.1405C24.7061 16.8001 25.5021 15.523 25.8706 14.7296C25.8783 14.7142 25.8834 14.7014 25.8937 14.6861C26.6973 13.2119 28.0512 11.579 30.0321 12.0986L30.027 12.1011Z" fill="white"/>
<path d="M61.3146 59.4817C59.07 59.4817 57.0789 59.0235 55.3411 58.1073C53.634 57.191 52.3057 55.8935 51.3588 54.2197C50.4093 52.5433 49.9358 50.6161 49.9358 48.4356C49.9358 45.4642 50.6319 42.7615 52.0216 40.3276C53.4446 37.8629 55.3718 35.9178 57.8057 34.4948C60.2704 33.0718 63.0063 32.3604 66.0084 32.3604C68.2529 32.3604 70.2441 32.8338 71.9819 33.7833C73.7529 34.6996 75.1119 35.9972 76.0589 37.671C77.0391 39.3473 77.5279 41.2745 77.5279 43.4551C77.5279 46.4572 76.8164 49.1752 75.3935 51.6091C73.9705 54.0431 72.0126 55.9702 69.5147 57.3932C67.05 58.783 64.3141 59.4791 61.312 59.4791L61.3146 59.4817ZM62.2155 53.7922C63.7971 53.7922 65.2329 53.3341 66.5305 52.4179C67.8255 51.5016 68.8365 50.2834 69.5659 48.7683C70.2927 47.2506 70.6561 45.6561 70.6561 43.9797C70.6561 42.0833 70.1187 40.6296 69.0438 39.6186C68.0021 38.5744 66.6738 38.0549 65.0614 38.0549C63.4491 38.0549 62.0107 38.513 60.7464 39.4292C59.5128 40.3455 58.5505 41.5791 57.8544 43.1275C57.1582 44.6452 56.8127 46.2576 56.8127 47.9646C56.8127 49.8304 57.3015 51.2687 58.2818 52.2797C59.2927 53.2906 60.6056 53.7974 62.218 53.7974L62.2155 53.7922Z" fill="white"/>
<path d="M90.4485 59.4817C88.204 59.4817 86.2128 59.0235 84.475 58.1073C82.7679 57.191 81.4396 55.8935 80.4927 54.2197C79.5432 52.5433 79.0697 50.6161 79.0697 48.4356C79.0697 45.4642 79.7658 42.7615 81.1556 40.3276C82.5785 37.8629 84.5057 35.9178 86.9396 34.4948C89.4043 33.0718 92.1402 32.3604 95.1423 32.3604C97.3868 32.3604 99.378 32.8338 101.116 33.7833C102.887 34.6996 104.246 35.9972 105.193 37.671C106.173 39.3473 106.662 41.2745 106.662 43.4551C106.662 46.4572 105.95 49.1752 104.527 51.6091C103.104 54.0431 101.146 55.9702 98.6486 57.3932C96.184 58.783 93.448 59.4791 90.4459 59.4791L90.4485 59.4817ZM91.3494 53.7922C92.9285 53.7922 94.3668 53.3341 95.6644 52.4179C96.9594 51.5016 97.9729 50.2834 98.6998 48.7683C99.4266 47.2506 99.79 45.6561 99.79 43.9797C99.79 42.0833 99.2526 40.6296 98.1777 39.6186C97.1335 38.5744 95.8077 38.0549 94.1954 38.0549C92.583 38.0549 91.1446 38.513 89.8803 39.4292C88.6467 40.3455 87.6844 41.5791 86.9883 43.1275C86.2921 44.6452 85.9441 46.2576 85.9441 47.9646C85.9441 49.8304 86.4355 51.2687 87.4131 52.2797C88.4241 53.2906 89.737 53.7974 91.3494 53.7974V53.7922Z" fill="white"/>
<path d="M122.787 32.3633C124.747 32.3633 126.406 32.7574 127.765 33.5483C129.154 34.3058 130.135 35.3014 130.705 36.535L130.887 35.5087C131.166 33.9347 132.533 32.7881 134.132 32.7881C136.18 32.7881 137.731 34.636 137.378 36.6527L133.411 59.244C132.968 61.6779 132.082 63.8431 130.757 65.7396C129.428 67.6668 127.691 69.1845 125.541 70.2927C123.391 71.4316 120.926 71.9997 118.144 71.9997C114.446 71.9997 111.554 71.1296 109.468 69.3918C108.245 68.3552 107.418 67.0961 106.991 65.6116C106.466 63.7945 108.142 62.2794 110.034 62.2794C111.925 62.2794 113.335 63.902 114.799 65.0051C114.853 65.046 114.909 65.087 114.966 65.1254C116.01 65.8522 117.351 66.2156 118.996 66.2156C120.957 66.2156 122.615 65.6296 123.974 64.4599C125.364 63.321 126.283 61.5832 126.723 59.244L127.435 55.167C126.36 56.4006 125.001 57.4269 123.358 58.2484C121.745 59.07 119.977 59.482 118.047 59.482C116.117 59.482 114.397 59.0546 112.88 58.2024C111.395 57.3168 110.223 56.0858 109.371 54.5041C108.549 52.8917 108.137 51.0285 108.137 48.9094C108.137 47.9292 108.232 46.9029 108.421 45.828C108.895 43.1739 109.829 40.8193 111.219 38.7642C112.642 36.709 114.364 35.1299 116.386 34.0217C118.408 32.9161 120.542 32.3633 122.787 32.3633ZM129.044 45.9227C129.17 45.1011 129.234 44.4997 129.234 44.1209C129.234 42.2551 128.681 40.8014 127.575 39.7598C126.5 38.7181 125.141 38.196 123.498 38.196C122.265 38.196 121.064 38.4955 119.895 39.0969C118.756 39.6983 117.76 40.5813 116.908 41.7509C116.056 42.8898 115.485 44.2488 115.201 45.828C115.106 46.4294 115.058 46.9976 115.058 47.535C115.058 49.4315 115.595 50.9338 116.67 52.0395C117.745 53.1144 119.104 53.6518 120.747 53.6518C121.981 53.6518 123.181 53.3524 124.351 52.751C125.52 52.1188 126.516 51.2179 127.337 50.0483C128.19 48.8787 128.76 47.5043 129.044 45.9227Z" fill="white"/>
<path d="M145.469 29.66C144.425 29.66 143.588 29.3606 142.956 28.7591C142.324 28.1577 142.006 27.4001 142.006 26.4839C142.006 25.2196 142.48 24.1447 143.429 23.2591C144.409 22.3429 145.548 21.8848 146.843 21.8848C147.854 21.8848 148.676 22.1842 149.308 22.7857C149.94 23.3871 150.257 24.1447 150.257 25.0609C150.257 26.3252 149.784 27.4155 148.834 28.3317C147.885 29.2173 146.764 29.66 145.469 29.66ZM144.294 32.7901C146.342 32.7901 147.893 34.6379 147.534 36.6547L144.054 56.3386C143.775 57.91 142.408 59.0566 140.814 59.0566C138.766 59.0566 137.215 57.2088 137.573 55.192L141.054 35.5081C141.333 33.9367 142.7 32.7901 144.294 32.7901Z" fill="white"/>
<path d="M164.609 32.3633C167.959 32.3633 170.615 33.2949 172.573 35.1606C174.534 36.9931 175.514 39.4757 175.514 42.6057C175.514 43.6167 175.434 44.5176 175.276 45.3084C174.979 46.7928 173.63 47.7731 172.118 47.7731H156.408C155.863 47.7731 155.41 48.1749 155.41 48.7226C155.41 50.3657 155.884 51.6632 156.833 52.6102C157.813 53.5264 159.093 53.9846 160.672 53.9846C162.001 53.9846 163.137 53.7005 164.086 53.1323C164.516 52.8687 164.913 52.5693 165.269 52.2391C166.119 51.4508 167.16 50.8084 168.32 50.8084C170.792 50.8084 172.343 53.3806 170.579 55.1132C169.858 55.8222 169.052 56.4722 168.161 57.066C165.727 58.6784 162.96 59.4846 159.864 59.4846C156.513 59.4846 153.826 58.5351 151.804 56.6386C149.782 54.7421 148.769 52.1649 148.769 48.9094C148.769 47.9599 148.863 46.9643 149.053 45.9227C149.526 43.2046 150.491 40.8168 151.945 38.7642C153.429 36.709 155.264 35.1299 157.445 34.0217C159.625 32.9161 162.013 32.3633 164.603 32.3633H164.609ZM168.686 43.7421C168.749 43.2353 168.78 42.8719 168.78 42.6518C168.78 41.1341 168.291 39.9492 167.311 39.0969C166.331 38.2421 165.051 37.8172 163.47 37.8172C161.793 37.8172 160.293 38.3547 158.965 39.4296C157.637 40.4713 156.705 41.9096 156.168 43.7447H168.686V43.7421Z" fill="white"/>
</g>
<defs>
<filter id="filter0_d_45_1965" x="0.184803" y="0.684803" width="186.644" height="82.6304" filterUnits="userSpaceOnUse" color-interpolation-filters="sRGB">
<feFlood flood-opacity="0" result="BackgroundImageFix"/>
<feColorMatrix in="SourceAlpha" type="matrix" values="0 0 0 0 0 0 0 0 0 0 0 0 0 0 0 0 0 0 127 0" result="hardAlpha"/>
<feMorphology radius="3.77173" operator="dilate" in="SourceAlpha" result="effect1_dropShadow_45_1965"/>
<feOffset/>
<feGaussianBlur stdDeviation="3.77173"/>
<feComposite in2="hardAlpha" operator="out"/>
<feColorMatrix type="matrix" values="0 0 0 0 0 0 0 0 0 0 0 0 0 0 0 0 0 0 0.05 0"/>
<feBlend mode="normal" in2="BackgroundImageFix" result="effect1_dropShadow_45_1965"/>
<feBlend mode="normal" in="SourceGraphic" in2="effect1_dropShadow_45_1965" result="shape"/>
</filter>
</defs>
</svg>
